<svg xmlns="http://www.w3.org/2000/svg" width="512" height="512" viewBox="0 0 512 512" role="img" aria-labelledby="title desc">
  <title id="title">Upgrade Guard</title>
  <desc id="desc">A shield protecting a Moodle upgrade checklist.</desc>
  <defs>
    <linearGradient id="background" x1="0" y1="0" x2="1" y2="1">
      <stop offset="0" stop-color="#102a56"/>
      <stop offset="1" stop-color="#176b87"/>
    </linearGradient>
  </defs>
  <rect width="512" height="512" rx="104" fill="url(#background)"/>
  <path d="M256 72 397 126v112c0 99-60 159-141 202-81-43-141-103-141-202V126L256 72Z" fill="#f6fbff" opacity=".12"/>
  <path d="M256 91 379 138v99c0 83-48 138-123 180-75-42-123-97-123-180v-99l123-47Z" fill="none" stroke="#f6fbff" stroke-width="18" stroke-linejoin="round"/>
  <path d="M182 252h148M256 326V191m0 0-48 49m48-49 48 49" fill="none" stroke="#54e0bd" stroke-width="24" stroke-linecap="round" stroke-linejoin="round"/>
  <circle cx="338" cy="331" r="45" fill="#ffca68"/>
  <path d="m318 331 14 14 27-30" fill="none" stroke="#102a56" stroke-width="13" stroke-linecap="round" stroke-linejoin="round"/>
</svg>
